# xmcd CD database file
#
# Track frame offsets:
#	150
#	18450
#	39822
#	60297
#	77819
#	97504
#	118876
#	141018
#	164808
#	188337
#	209835
#
# Disc length: 3142 seconds
#
# Revision: 0
# Processed by: cddbd v1.5.1PL0 Copyright (c) Steve Scherf et al.
# Submitted via: freeDB plugin v1.0
#
DISCID=890c440b
DTITLE=　 - 　
DYEAR=1900
DGENRE=Rock
TTITLE0=winter love
TTITLE1=ウソツキ　
TTITLE2=name of love
TTITLE3=シンジラレナイ＝シンジタイ
TTITLE4=風　〜南風バージョン〜
TTITLE5=冬の花火　
TTITLE6=あふれそうな愛、抱いて
TTITLE7=涙をふいて
TTITLE8=世界中がハッピーバースディ
TTITLE9=あの人に会いたい
TTITLE10=愛のために。
EXTD=
EXTT0=
EXTT1=
EXTT2=
EXTT3=
EXTT4=
EXTT5=
EXTT6=
EXTT7=
EXTT8=
EXTT9=
EXTT10=
PLAYORDER=
